<mxfile host="Electron" modified="2025-03-24T05:56:31.301Z" agent="Mozilla/5.0 (Windows NT 10.0; Win64; x64) AppleWebKit/537.36 (KHTML, like Gecko) draw.io/22.1.2 Chrome/114.0.5735.289 Electron/25.9.4 Safari/537.36" etag="0ykRwJmnKK8Mkf4JxoA4" version="22.1.2" type="device">
  <diagram name="Page-1" id="pHWugxC1h7HkT4WbzTX2">
    <mxGraphModel dx="1434" dy="956" grid="0" gridSize="10" guides="1" tooltips="1" connect="1" arrows="1" fold="1" page="1" pageScale="1" pageWidth="1169" pageHeight="827" background="#000000" math="0" shadow="0">
      <root>
        <mxCell id="0" />
        <mxCell id="1" parent="0" />
        <mxCell id="N00o8MgfMD8IoFkGWslz-1" value="Jérémie Litzler ⏩ JLI" style="text;html=1;strokeColor=none;fillColor=none;align=center;verticalAlign=middle;whiteSpace=wrap;rounded=0;labelBackgroundColor=none;fontSize=80;fontColor=#FFFFFF;" parent="1" vertex="1">
          <mxGeometry x="97" y="361" width="975" height="105" as="geometry" />
        </mxCell>
      </root>
    </mxGraphModel>
  </diagram>
</mxfile>
